PathFileType	4	(X/Y/Z)	C:/Users/beibeiliu/ov580/test_trc/User3\sequence.11_training_dense_left.trc
DataRate	CameraRate	NumFrames	NumMarkers	Units	OrigDataRate	OrigDataStartFrame	OrigNumFrames
120	120	13	19	mm	120	74	196
Frame#	Time	ThumbCMC			ThumbMCP			ThumbIP			ThumbTip			IndexMCP			IndexPIP			IndexTip			MiddleMCP			MiddlePIP			MiddleTip			RingMCP			RingPIP			RingTip			PinkyMCP			PinkyPIP			PinkyTip			BackHand1			BackHand2			BackHand3	
		X0	Y0	Z0	X1	Y1	Z1	X2	Y2	Z2	X3	Y3	Z3	X4	Y4	Z4	X5	Y5	Z5	X6	Y6	Z6	X7	Y7	Z7	X8	Y8	Z8	X9	Y9	Z9	X10	Y10	Z10	X11	Y11	Z11	X12	Y12	Z12	X13	Y13	Z13	X14	Y14	Z14	X15	Y15	Z15	X16	Y16	Z16	X17	Y17	Z17	X18	Y18	Z18	
73	0.608333	-266.939	-38.6072	-9.67351	-270.592	-32.8931	-37.6627	-284.281	-27.6899	-65.4004	-297.525	-21.8862	-77.4118	-225.949	-41.9553	-79.542	-221.396	-37.475	-105.727	-209.89	-35.9236	-129.442	-201.884	-52.2053	-77.3794	-189.076	-49.3915	-98.2792	-174.48	-46.8425	-129.49	-184.685	-55.7902	-58.5225	-168.761	-54.7383	-80.4521	-151.362	-56.0571	-100.717	-168.222	-53.6352	-36.3899	-150.123	-52.5806	-42.7734	-134.474	-55.5552	-59.3646	-211.183	-69.6662	-20.2469	-218.599	-76.6872	7.43888	-242.545	-62.7862	-19.8258	
74	0.616667	-264.426	-38.9627	-10.7037	-274.906	-32.3532	-37.0505	-284.71	-27.4108	-65.6696	-298.82	-22.4171	-77.0717	-224.74	-41.7675	-79.9682	-218.685	-38.0116	-104.568	-213.663	-34.5821	-129.411	-200.869	-52.8782	-79.5214	-188.819	-49.1389	-99.7231	-179.54	-46.4486	-127.838	-186.17	-55.176	-58.3457	-166.803	-56.6554	-79.2534	-154.004	-55.1239	-95.8482	-168.022	-54.0318	-33.2059	-154.595	-51.1385	-42.9586	-136.355	-55.2433	-57.5496	-208.905	-69.4039	-14.8493	-224.506	-76.7556	7.59508	-244.605	-62.463	-19.2542	
75	0.625	-267.022	-38.2259	-12.6358	-272.506	-31.0365	-37.6019	-285.876	-27.4076	-62.0004	-297.49	-21.1622	-77.1504	-222.452	-43.1109	-79.4694	-216.447	-37.0834	-106.305	-214.347	-33.3557	-129.456	-201.38	-52.6215	-77.8471	-188.15	-49.4658	-99.4487	-175.668	-46.3378	-130.038	-181.286	-55.5864	-58.0577	-170.187	-55.32	-78.695	-149.973	-56.6285	-100.014	-170.629	-52.2831	-33.142	-152.11	-52.2269	-41.324	-136.584	-55.7111	-58.0066	-210.447	-68.0789	-21.3581	-224.712	-75.7396	9.30309	-243.574	-64.1786	-16.4624	
76	0.633333	-265.774	-37.2591	-14.7416	-273.25	-30.3631	-36.3454	-281.356	-25.8107	-63.256	-297.735	-20.8554	-77.3148	-227.4	-40.261	-78.9032	-221.291	-35.3207	-105.575	-211.742	-32.5998	-127.19	-199.4	-51.9006	-79.3878	-186.687	-49.1804	-99.7606	-177.92	-45.0633	-127.31	-184.11	-54.5603	-59.2636	-165.19	-55.9632	-77.8142	-150.441	-55.3049	-95.6692	-166.73	-53.8426	-33.0948	-151.609	-52.2945	-41.694	-132.547	-57.3625	-58.1396	-210.408	-67.8918	-16.4032	-218.216	-76.8747	7.17149	-240.748	-63.4973	-20.5149	
77	0.641667	-261.563	-37.0832	-10.42	-268.395	-29.8287	-36.8442	-282.872	-24.1461	-62.125	-294.228	-19.4804	-76.1317	-222.509	-40.4396	-78.3128	-218.298	-34.7942	-104.971	-209.895	-31.8745	-128.996	-199.915	-50.8696	-77.7142	-188.569	-46.7536	-98.3013	-173.28	-43.8368	-125.483	-179.763	-53.7288	-58.6949	-162.593	-54.3805	-77.134	-147.478	-55.639	-97.6588	-166.267	-53.3792	-34.8964	-149.067	-52.0396	-43.9894	-134.128	-52.983	-56.0128	-207.166	-70.4587	-17.9451	-218.465	-75.1618	9.46045	-238.995	-63.2295	-19.4034	
78	0.65	-264.733	-35.8793	-10.8664	-268.053	-29.6401	-38.5156	-279.841	-23.7708	-61.755	-290.331	-19.0413	-79.049	-221.118	-38.0444	-79.9856	-218.849	-32.9321	-102.836	-210.623	-29.2029	-125.879	-195.511	-50.9089	-72.8691	-184.156	-45.8932	-101.322	-174.227	-42.2396	-126.72	-180.357	-53.1326	-55.3467	-161.496	-54.1969	-74.2497	-148.3	-54.1346	-92.631	-167.748	-50.9411	-30.3152	-146.39	-50.7085	-43.2766	-130.553	-53.7977	-53.5193	-209.114	-66.2047	-15.4664	-218.117	-73.0324	8.27863	-241.108	-59.4104	-18.3797	
79	0.658333	-261.518	-34.782	-11.8698	-268.819	-28.2095	-36.9734	-282.798	-23.1332	-62.4884	-292.547	-18.1343	-78.1729	-219.355	-37.3308	-77.5048	-213.72	-31.4142	-105.955	-210.941	-28.05	-126.044	-193.797	-49.2071	-74.3244	-185.663	-44.4531	-97.2613	-170.355	-41.9375	-123.68	-177.177	-52.3969	-59.2435	-160.676	-52.4177	-73.0117	-147.626	-52.9583	-93.0184	-165.227	-50.7098	-30.5354	-147.547	-49.9718	-37.6304	-129.885	-51.8497	-49.7157	-206.368	-65.8769	-14.0893	-218.993	-73.9894	6.61161	-239.813	-60.5631	-19.1515	
80	0.666667	-259.78	-34.0925	-11.6448	-270.725	-26.8627	-34.4692	-278.426	-22.6892	-62.5226	-289.586	-16.0816	-77.466	-218.543	-36.6536	-81.291	-212.656	-30.889	-105.944	-209.999	-25.3031	-129.268	-192.955	-48.2588	-74.0162	-181.12	-45.6391	-98.1101	-170.085	-41.3422	-123.622	-178.716	-50.3234	-55.8666	-163.886	-50.2034	-72.2585	-145.248	-51.6509	-94.8936	-160.195	-50.3814	-28.3651	-148.266	-46.4463	-38.4899	-128.028	-51.4066	-46.2845	-202.566	-67.198	-18.5053	-220.438	-71.2077	7.65191	-240.004	-59.153	-18.0389	
81	0.675	-264.444	-33.5982	-12.5901	-269.451	-26.2841	-37.3665	-280.287	-22.1715	-63.0643	-290.389	-15.1859	-77.4959	-218.802	-35.5199	-78.1974	-211.778	-31.6269	-101.737	-204.402	-27.1082	-127.419	-194.39	-47.0246	-74.9633	-183.022	-44.7745	-98.0426	-164.557	-44.4982	-121.344	-175.495	-50.294	-52.7768	-159.335	-51.3943	-67.9668	-141.639	-52.2704	-92.2834	-161.528	-48.023	-30.365	-145.485	-46.7052	-36.3616	-123.252	-50.7438	-41.303	-203.5	-66.3892	-14.9455	-216.069	-72.0477	9.65025	-238.519	-58.2395	-18.36	
82	0.683333	-263.571	-34.7861	-13.3722	-267.676	-26.3968	-34.3372	-278.595	-20.6487	-64.5217	-288.156	-16.133	-80.8744	-219.51	-36.4419	-78.9741	-213.827	-31.0971	-101.699	-203.717	-28.6627	-124.403	-193.822	-48.3579	-70.3994	-178.615	-45.3507	-97.5793	-162.214	-44.7724	-121.089	-174.373	-50.5898	-52.5931	-156.912	-50.5853	-65.8558	-141.725	-50.5514	-88.0955	-164.557	-47.9667	-24.171	-144.475	-46.2504	-30.6681	-124.564	-47.0921	-36.65	-205.861	-65.8243	-18.6894	-220.589	-73.1706	8.24235	-239.377	-61.1572	-16.6818	
83	0.691667	-262.851	-35.0994	-10.1109	-270.417	-26.554	-36.4716	-277.203	-21.39	-63.0282	-289.836	-15.8633	-80.7189	-219.315	-36.4517	-77.014	-211.706	-31.9687	-101.783	-205.287	-29.2075	-124.579	-189.037	-50.2647	-72.0834	-175.379	-46.5538	-93.0279	-160.796	-44.4501	-116.998	-174.699	-50.814	-50.3248	-156.546	-50.3495	-64.3355	-136.189	-51.2824	-83.3821	-162.003	-48.1553	-21.2376	-143.345	-44.7979	-25.6653	-123.169	-45.2342	-37.2348	-203.241	-66.4966	-15.4263	-217.8	-73.7686	11.1556	-239.236	-60.8312	-18.6326	
84	0.7	-262.827	-36.0108	-15.6031	-269.552	-27.0946	-39.506	-282.431	-22.1306	-64.4455	-290.434	-15.2312	-79.6759	-218.718	-37.6746	-77.0532	-209.126	-32.0572	-104.68	-206.848	-29.0617	-124.949	-191.023	-48.5975	-74.0936	-176.229	-47.6607	-91.74	-161.498	-44.8801	-119.793	-171.773	-52.0405	-50.3641	-154.119	-50.1911	-68.0243	-135.213	-50.6204	-84.8408	-160.671	-48.5003	-25.3591	-141.865	-44.1623	-25.6851	-123.446	-44.4688	-35.9292	-202.754	-69.5638	-16.4527	-220.792	-73.9575	11.2938	-240.167	-61.0202	-19.9551	
85	0.708333	-263.759	-35.3984	-13.882	-266.143	-27.2335	-39.5648	-277.16	-21.1335	-63.6568	-290.048	-15.973	-81.4037	-215.894	-38.2024	-78.8039	-210.402	-32.8569	-99.947	-204.424	-29.5069	-125.172	-192.07	-50.7539	-71.8396	-176.235	-47.4822	-95.8366	-161.539	-45.2539	-118.489	-170.245	-53.9167	-49.2047	-155.829	-51.3016	-67.3331	-132.214	-52.203	-82.4397	-156.865	-50.3337	-22.1382	-142.529	-44.5074	-26.6825	-117.769	-45.1093	-33.2905	-203.937	-69.1731	-13.571	-220.319	-74.3991	7.317	-241.792	-61.1394	-17.4241	
